<mxfile host="app.diagrams.net" agent="Mozilla/5.0 (Windows NT 10.0; Win64; x64) AppleWebKit/537.36 (KHTML, like Gecko) Chrome/133.0.0.0 Safari/537.36 Edg/133.0.0.0" version="26.0.16">
  <diagram id="C5RBs43oDa-KdzZeNtuy" name="Page-1">
    <mxGraphModel dx="1213" dy="768" grid="1" gridSize="10" guides="1" tooltips="1" connect="1" arrows="1" fold="1" page="1" pageScale="1" pageWidth="1169" pageHeight="827" math="0" shadow="0">
      <root>
        <mxCell id="WIyWlLk6GJQsqaUBKTNV-0" />
        <mxCell id="WIyWlLk6GJQsqaUBKTNV-1" parent="WIyWlLk6GJQsqaUBKTNV-0" />
        <mxCell id="P3w2kpVxuKjMb2fyrRjU-3" value="GPT创建&lt;div&gt;（RAG）&lt;/div&gt;" style="edgeStyle=orthogonalEdgeStyle;rounded=0;orthogonalLoop=1;jettySize=auto;html=1;fontSize=15;exitX=1;exitY=0.5;exitDx=0;exitDy=0;" parent="WIyWlLk6GJQsqaUBKTNV-1" source="njB9oWOn1qgixk05j0es-1" target="P3w2kpVxuKjMb2fyrRjU-2" edge="1">
          <mxGeometry relative="1" as="geometry" />
        </mxCell>
        <mxCell id="njB9oWOn1qgixk05j0es-2" value="MinerU" style="edgeStyle=orthogonalEdgeStyle;rounded=0;orthogonalLoop=1;jettySize=auto;html=1;fontSize=15;" edge="1" parent="WIyWlLk6GJQsqaUBKTNV-1" source="P3w2kpVxuKjMb2fyrRjU-0" target="njB9oWOn1qgixk05j0es-1">
          <mxGeometry relative="1" as="geometry" />
        </mxCell>
        <mxCell id="P3w2kpVxuKjMb2fyrRjU-0" value="获得文档" style="rounded=1;whiteSpace=wrap;html=1;fontSize=15;" parent="WIyWlLk6GJQsqaUBKTNV-1" vertex="1">
          <mxGeometry x="230" y="190" width="120" height="60" as="geometry" />
        </mxCell>
        <mxCell id="P3w2kpVxuKjMb2fyrRjU-5" value="LLM" style="edgeStyle=orthogonalEdgeStyle;rounded=0;orthogonalLoop=1;jettySize=auto;html=1;fontSize=15;" parent="WIyWlLk6GJQsqaUBKTNV-1" source="P3w2kpVxuKjMb2fyrRjU-2" target="P3w2kpVxuKjMb2fyrRjU-4" edge="1">
          <mxGeometry relative="1" as="geometry" />
        </mxCell>
        <mxCell id="P3w2kpVxuKjMb2fyrRjU-2" value="解析后的文档" style="rounded=1;whiteSpace=wrap;html=1;fontSize=15;fontColor=#FF3333;" parent="WIyWlLk6GJQsqaUBKTNV-1" vertex="1">
          <mxGeometry x="740" y="190" width="120" height="60" as="geometry" />
        </mxCell>
        <mxCell id="P3w2kpVxuKjMb2fyrRjU-7" value="LLM" style="edgeStyle=orthogonalEdgeStyle;rounded=0;orthogonalLoop=1;jettySize=auto;html=1;fontSize=15;" parent="WIyWlLk6GJQsqaUBKTNV-1" source="P3w2kpVxuKjMb2fyrRjU-4" target="P3w2kpVxuKjMb2fyrRjU-6" edge="1">
          <mxGeometry relative="1" as="geometry" />
        </mxCell>
        <mxCell id="P3w2kpVxuKjMb2fyrRjU-4" value="UML（概念模型）" style="rounded=1;whiteSpace=wrap;html=1;fontSize=15;" parent="WIyWlLk6GJQsqaUBKTNV-1" vertex="1">
          <mxGeometry x="740" y="330" width="120" height="60" as="geometry" />
        </mxCell>
        <mxCell id="P3w2kpVxuKjMb2fyrRjU-9" value="" style="edgeStyle=orthogonalEdgeStyle;rounded=0;orthogonalLoop=1;jettySize=auto;html=1;fontSize=15;" parent="WIyWlLk6GJQsqaUBKTNV-1" source="P3w2kpVxuKjMb2fyrRjU-6" target="P3w2kpVxuKjMb2fyrRjU-8" edge="1">
          <mxGeometry relative="1" as="geometry" />
        </mxCell>
        <mxCell id="P3w2kpVxuKjMb2fyrRjU-6" value="UML to OWL（本体模型源码）" style="rounded=1;whiteSpace=wrap;html=1;fontSize=15;fontColor=#FF3333;" parent="WIyWlLk6GJQsqaUBKTNV-1" vertex="1">
          <mxGeometry x="540" y="330" width="120" height="60" as="geometry" />
        </mxCell>
        <mxCell id="njB9oWOn1qgixk05j0es-0" value="" style="edgeStyle=orthogonalEdgeStyle;rounded=0;orthogonalLoop=1;jettySize=auto;html=1;fontSize=15;" edge="1" parent="WIyWlLk6GJQsqaUBKTNV-1" source="P3w2kpVxuKjMb2fyrRjU-8" target="P3w2kpVxuKjMb2fyrRjU-10">
          <mxGeometry relative="1" as="geometry" />
        </mxCell>
        <mxCell id="P3w2kpVxuKjMb2fyrRjU-8" value="导入protege&lt;div&gt;本体模型&lt;/div&gt;" style="rounded=1;whiteSpace=wrap;html=1;fontSize=15;" parent="WIyWlLk6GJQsqaUBKTNV-1" vertex="1">
          <mxGeometry x="380" y="330" width="120" height="60" as="geometry" />
        </mxCell>
        <mxCell id="P3w2kpVxuKjMb2fyrRjU-10" value="检验效果（方法待定）" style="rounded=1;whiteSpace=wrap;html=1;dashed=1;fontSize=15;" parent="WIyWlLk6GJQsqaUBKTNV-1" vertex="1">
          <mxGeometry x="220" y="330" width="120" height="60" as="geometry" />
        </mxCell>
        <mxCell id="njB9oWOn1qgixk05j0es-1" value="&lt;font&gt;md格式的文档&lt;/font&gt;" style="rounded=1;whiteSpace=wrap;html=1;fontSize=15;" vertex="1" parent="WIyWlLk6GJQsqaUBKTNV-1">
          <mxGeometry x="465" y="190" width="120" height="60" as="geometry" />
        </mxCell>
      </root>
    </mxGraphModel>
  </diagram>
</mxfile>
